<svg height="512" viewBox="0 0 64 64" width="512" xmlns="http://www.w3.org/2000/svg"><g id="Flat"><path d="m12 37v-32a2 2 0 0 1 2-2h26l12 12v22" fill="#d6d6d4"/><path d="m52 57v2a2 2 0 0 1 -2 2h-36a2 2 0 0 1 -2-2v-2" fill="#d6d6d4"/><path d="m40 3v12h12" fill="#44546c"/><rect fill="#7eb457" height="20" rx="2" width="46" x="9" y="37"/><path d="m46 26h-28a1 1 0 0 1 0-2h28a1 1 0 0 1 0 2z" fill="#44546c"/><path d="m46 32h-28a1 1 0 0 1 0-2h28a1 1 0 0 1 0 2z" fill="#44546c"/><g fill="#d6d6d4"><path d="m24.58 45.24a3.43 3.43 0 0 0 0-.4 1.09 1.09 0 0 0 -.18-.47 1.16 1.16 0 0 0 -.4-.37 1.51 1.51 0 0 0 -.8-.17 1.42 1.42 0 0 0 -1.07.39 1.71 1.71 0 0 0 -.38 1.22v4.26a1.73 1.73 0 0 0 .38 1.22 1.76 1.76 0 0 0 1.84.23 1.19 1.19 0 0 0 .6-.93 5.19 5.19 0 0 0 .06-.52.63.63 0 0 1 .4-.6 2 2 0 0 1 .84-.16 1.59 1.59 0 0 1 1 .24 1.16 1.16 0 0 1 .3 1 3.31 3.31 0 0 1 -.3 1.44 2.93 2.93 0 0 1 -.86 1.05 3.77 3.77 0 0 1 -1.28.65 5.38 5.38 0 0 1 -1.6.23 5.58 5.58 0 0 1 -1.49-.2 3.49 3.49 0 0 1 -1.23-.66 3.19 3.19 0 0 1 -.83-1.18 4.33 4.33 0 0 1 -.31-1.76v-4.34a4.4 4.4 0 0 1 .31-1.76 3.11 3.11 0 0 1 .83-1.18 3.19 3.19 0 0 1 1.23-.66 5.21 5.21 0 0 1 1.49-.2 5.74 5.74 0 0 1 1.6.21 3.72 3.72 0 0 1 1.28.62 2.94 2.94 0 0 1 .86 1 3 3 0 0 1 .3 1.37 1.2 1.2 0 0 1 -.3 1 1.62 1.62 0 0 1 -.95.23 2 2 0 0 1 -.87-.16.66.66 0 0 1 -.47-.64z"/><path d="m31.63 51.28a2.57 2.57 0 0 0 .55-.06 1.62 1.62 0 0 0 .51-.18 1.15 1.15 0 0 0 .36-.33.81.81 0 0 0 .14-.49 1.06 1.06 0 0 0 -.38-.82 4.78 4.78 0 0 0 -.94-.61l-1.23-.58a5.4 5.4 0 0 1 -1.23-.73 3.68 3.68 0 0 1 -.94-1.06 2.94 2.94 0 0 1 -.38-1.58 2.95 2.95 0 0 1 1.3-2.56 3.93 3.93 0 0 1 1.32-.58 5.88 5.88 0 0 1 1.5-.19c.21 0 .5 0 .86.05a6.37 6.37 0 0 1 1.06.19 2.69 2.69 0 0 1 .9.43.88.88 0 0 1 .38.75 1.54 1.54 0 0 1 -.06.38 1.49 1.49 0 0 1 -.17.44 1.07 1.07 0 0 1 -.32.35.7.7 0 0 1 -.45.15 1 1 0 0 1 -.41-.1l-.42-.21a5.37 5.37 0 0 0 -.55-.21 3.15 3.15 0 0 0 -.82-.09 2 2 0 0 0 -1.24.29.84.84 0 0 0 -.37.67.83.83 0 0 0 .38.68 5.33 5.33 0 0 0 .94.53l1.23.55a5.2 5.2 0 0 1 1.23.77 3.88 3.88 0 0 1 .94 1.14 3.44 3.44 0 0 1 .38 1.73 3.74 3.74 0 0 1 -.3 1.54 3.18 3.18 0 0 1 -.83 1.12 3.83 3.83 0 0 1 -1.28.68 5.54 5.54 0 0 1 -1.61.23 6.56 6.56 0 0 1 -1.5-.17 5.62 5.62 0 0 1 -1.24-.47 2.89 2.89 0 0 1 -.84-.67 1.23 1.23 0 0 1 -.3-.78 1.19 1.19 0 0 1 .09-.44 1.85 1.85 0 0 1 .23-.44 1.37 1.37 0 0 1 .35-.33.66.66 0 0 1 .42-.14.88.88 0 0 1 .54.18l.55.41a3.81 3.81 0 0 0 .69.41 2.13 2.13 0 0 0 .96.15z"/><path d="m36.17 42.81a.86.86 0 0 1 0-.17.63.63 0 0 1 .15-.41 1.24 1.24 0 0 1 .39-.32 1.91 1.91 0 0 1 .53-.22 1.68 1.68 0 0 1 .54-.08 1.21 1.21 0 0 1 .52.1.61.61 0 0 1 .3.36l2.25 8.26 2.24-8.26a.56.56 0 0 1 .29-.36 1.22 1.22 0 0 1 .53-.1 1.77 1.77 0 0 1 .54.08 2 2 0 0 1 .52.22 1.24 1.24 0 0 1 .39.32.64.64 0 0 1 .16.41 1.2 1.2 0 0 1 0 .17l-3 9.82a1 1 0 0 1 -.6.63 2.58 2.58 0 0 1 -1 .21 2.54 2.54 0 0 1 -1-.21 1 1 0 0 1 -.6-.63z"/></g></g></svg>