<svg height="512" viewBox="0 0 64 64" width="512" xmlns="http://www.w3.org/2000/svg"><g id="Flat"><path d="m12 37v-32a2 2 0 0 1 2-2h26l12 12v22" fill="#d6d6d4"/><path d="m52 57v2a2 2 0 0 1 -2 2h-36a2 2 0 0 1 -2-2v-2" fill="#d6d6d4"/><path d="m40 3v12h12" fill="#44546c"/><rect fill="#ffa912" height="20" rx="2" width="46" x="9" y="37"/><path d="m46 26h-28a1 1 0 0 1 0-2h28a1 1 0 0 1 0 2z" fill="#44546c"/><path d="m46 32h-28a1 1 0 0 1 0-2h28a1 1 0 0 1 0 2z" fill="#44546c"/><g fill="#d6d6d4"><path d="m22.49 43.8a.61.61 0 0 1 -.56-.33 1.51 1.51 0 0 1 -.2-.78 1.59 1.59 0 0 1 .18-.74.6.6 0 0 1 .58-.34h2.82a1.47 1.47 0 0 1 .75.19.62.62 0 0 1 .34.58v7.29a4.33 4.33 0 0 1 -.31 1.76 3.19 3.19 0 0 1 -.83 1.18 3.49 3.49 0 0 1 -1.23.66 5.58 5.58 0 0 1 -1.49.2 5.38 5.38 0 0 1 -1.6-.23 3.77 3.77 0 0 1 -1.28-.65 2.93 2.93 0 0 1 -.86-1.05 3.31 3.31 0 0 1 -.3-1.44 1.16 1.16 0 0 1 .3-1 1.59 1.59 0 0 1 1-.24 2 2 0 0 1 .84.16.63.63 0 0 1 .4.6 5.19 5.19 0 0 0 .06.52 1.29 1.29 0 0 0 .18.53 1.24 1.24 0 0 0 .42.4 1.46 1.46 0 0 0 .76.16 1.4 1.4 0 0 0 1.08-.4 1.69 1.69 0 0 0 .38-1.21v-5.82z"/><path d="m28.09 42.36a.7.7 0 0 1 .26-.53 1 1 0 0 1 .67-.22h3.33a5.11 5.11 0 0 1 1.49.2 3.11 3.11 0 0 1 1.21.63 2.93 2.93 0 0 1 .8 1.15 4.38 4.38 0 0 1 .3 1.72v.08a4.38 4.38 0 0 1 -.3 1.72 3.25 3.25 0 0 1 -.85 1.16 3.15 3.15 0 0 1 -1.26.65 5.56 5.56 0 0 1 -1.56.2h-1.58v3.48a.62.62 0 0 1 -.39.58 2.06 2.06 0 0 1 -1.73 0 .62.62 0 0 1 -.39-.58zm2.51 1.44v3.39h1.59a1.45 1.45 0 0 0 1.07-.39 1.71 1.71 0 0 0 .38-1.22v-.17a1.71 1.71 0 0 0 -.38-1.22 1.45 1.45 0 0 0 -1.07-.39z"/><path d="m42.51 45.24a4.07 4.07 0 0 0 0-.46 1.08 1.08 0 0 0 -.18-.48 1.2 1.2 0 0 0 -.43-.36 1.69 1.69 0 0 0 -.79-.14 1.42 1.42 0 0 0 -1.07.39 1.67 1.67 0 0 0 -.38 1.22v4.26a1.64 1.64 0 0 0 .34 1.21 1.36 1.36 0 0 0 1.05.4 1.38 1.38 0 0 0 1.06-.4 1.64 1.64 0 0 0 .39-1.21v-.55h-.95a.63.63 0 0 1 -.56-.29 1.22 1.22 0 0 1 -.2-.67 1.19 1.19 0 0 1 .2-.66.61.61 0 0 1 .56-.31h2.7a.69.69 0 0 1 .57.24.82.82 0 0 1 .18.57v1.69a4.33 4.33 0 0 1 -.31 1.76 3.19 3.19 0 0 1 -.83 1.18 3.45 3.45 0 0 1 -1.26.66 6 6 0 0 1 -1.56.2 5.82 5.82 0 0 1 -1.55-.2 3.1 3.1 0 0 1 -2.09-1.84 4.52 4.52 0 0 1 -.3-1.76v-4.28a4.59 4.59 0 0 1 .3-1.76 3.24 3.24 0 0 1 .84-1.18 3.06 3.06 0 0 1 1.23-.66 5.16 5.16 0 0 1 1.49-.2 5.79 5.79 0 0 1 1.6.21 3.72 3.72 0 0 1 1.28.62 2.73 2.73 0 0 1 .85 1 2.88 2.88 0 0 1 .31 1.37 1.16 1.16 0 0 1 -.31 1 1.6 1.6 0 0 1 -1 .23 2.08 2.08 0 0 1 -.87-.16.63.63 0 0 1 -.31-.64z"/></g></g></svg>