<svg height="512" viewBox="0 0 64 64" width="512" xmlns="http://www.w3.org/2000/svg"><g id="Flat"><path d="m12 37v-32a2 2 0 0 1 2-2h26l12 12v22" fill="#d6d6d4"/><path d="m52 57v2a2 2 0 0 1 -2 2h-36a2 2 0 0 1 -2-2v-2" fill="#d6d6d4"/><path d="m40 3v12h12" fill="#44546c"/><rect fill="#f35244" height="20" rx="2" width="46" x="9" y="37"/><path d="m46 26h-28a1 1 0 0 1 0-2h28a1 1 0 0 1 0 2z" fill="#44546c"/><path d="m46 32h-28a1 1 0 0 1 0-2h28a1 1 0 0 1 0 2z" fill="#44546c"/><g fill="#d6d6d4"><path d="m19.4 42.36a.67.67 0 0 1 .26-.53 1 1 0 0 1 .67-.22h3.33a5.11 5.11 0 0 1 1.49.2 3.11 3.11 0 0 1 1.21.63 2.93 2.93 0 0 1 .8 1.15 4.38 4.38 0 0 1 .3 1.72v.08a4.38 4.38 0 0 1 -.3 1.72 3.25 3.25 0 0 1 -.84 1.16 3.15 3.15 0 0 1 -1.26.65 5.56 5.56 0 0 1 -1.56.2h-1.59v3.48a.62.62 0 0 1 -.39.58 2.06 2.06 0 0 1 -1.73 0 .62.62 0 0 1 -.39-.58zm2.51 1.44v3.39h1.59a1.41 1.41 0 0 0 1.06-.39 1.69 1.69 0 0 0 .44-1.22v-.17a1.67 1.67 0 0 0 -.39-1.22 1.41 1.41 0 0 0 -1.06-.39z"/><path d="m32.5 41.61a5.56 5.56 0 0 1 1.56.2 3.07 3.07 0 0 1 1.25.66 3 3 0 0 1 .84 1.18 4.4 4.4 0 0 1 .31 1.76v4.16a4.42 4.42 0 0 1 -.31 1.77 3.11 3.11 0 0 1 -2.09 1.83 6 6 0 0 1 -1.56.2h-2.85a1.31 1.31 0 0 1 -.8-.22.67.67 0 0 1 -.29-.53v-10.26a.67.67 0 0 1 .29-.53 1.31 1.31 0 0 1 .8-.22zm-1.43 2.19v7.38h1.43a1.43 1.43 0 0 0 1.06-.39 1.67 1.67 0 0 0 .44-1.22v-4.16a1.67 1.67 0 0 0 -.39-1.22 1.43 1.43 0 0 0 -1.06-.39z"/><path d="m38.05 42.38a.62.62 0 0 1 .34-.58 1.48 1.48 0 0 1 .76-.19h5.58a.6.6 0 0 1 .58.34 1.59 1.59 0 0 1 .18.74 1.51 1.51 0 0 1 -.2.78.61.61 0 0 1 -.56.33h-4.17v2.72h2.44a.62.62 0 0 1 .56.29 1.24 1.24 0 0 1 .2.69 1.26 1.26 0 0 1 -.18.63.62.62 0 0 1 -.58.32h-2.44v4.15a.62.62 0 0 1 -.39.58 2.06 2.06 0 0 1 -1.73 0 .62.62 0 0 1 -.39-.58z"/></g></g></svg>