<svg height="512" viewBox="0 0 64 64" width="512" xmlns="http://www.w3.org/2000/svg"><g id="Flat"><path d="m12 37v-32a2 2 0 0 1 2-2h26l12 12v22" fill="#d6d6d4"/><path d="m52 57v2a2 2 0 0 1 -2 2h-36a2 2 0 0 1 -2-2v-2" fill="#d6d6d4"/><path d="m40 3v12h12" fill="#44546c"/><rect fill="#f35244" height="20" rx="2" width="46" x="9" y="37"/><path d="m46 26h-28a1 1 0 0 1 0-2h28a1 1 0 0 1 0 2z" fill="#44546c"/><path d="m46 32h-28a1 1 0 0 1 0-2h28a1 1 0 0 1 0 2z" fill="#44546c"/><g fill="#d6d6d4"><path d="m18.73 42.36a.76.76 0 0 1 .21-.53.73.73 0 0 1 .56-.22h3.33a6.4 6.4 0 0 1 1.55.17 3.3 3.3 0 0 1 1.26.57 2.8 2.8 0 0 1 .85 1.06 4 4 0 0 1 .3 1.64 3.7 3.7 0 0 1 -.55 2.15 3.06 3.06 0 0 1 -1.39 1.12l2 3.56a.54.54 0 0 1 .08.28 1 1 0 0 1 -.14.48 2.07 2.07 0 0 1 -.37.42 2.14 2.14 0 0 1 -.51.3 1.59 1.59 0 0 1 -.56.11 1.07 1.07 0 0 1 -.46-.11.75.75 0 0 1 -.34-.36l-2.25-4.28h-1.06v3.88a.62.62 0 0 1 -.39.58 1.93 1.93 0 0 1 -.86.19 1.9 1.9 0 0 1 -.86-.19.61.61 0 0 1 -.4-.58zm2.51 1.44v3h1.59a1.65 1.65 0 0 0 1.07-.32 1.52 1.52 0 0 0 .38-1.18 1.48 1.48 0 0 0 -.38-1.17 1.59 1.59 0 0 0 -1.07-.32z"/><path d="m28.93 53.37a2 2 0 0 1 -.53-.08 1.91 1.91 0 0 1 -.53-.22 1.24 1.24 0 0 1 -.39-.32.63.63 0 0 1 -.15-.41 1.05 1.05 0 0 1 0-.18l3-9.81a1 1 0 0 1 .6-.63 2.58 2.58 0 0 1 1-.21 2.54 2.54 0 0 1 1 .21 1 1 0 0 1 .6.63l3 9.81a1.63 1.63 0 0 1 0 .18.64.64 0 0 1 -.16.41 1.24 1.24 0 0 1 -.39.32 1.91 1.91 0 0 1 -.53.22 2 2 0 0 1 -.53.08 1.22 1.22 0 0 1 -.53-.1.56.56 0 0 1 -.29-.37l-.55-2h-3.25l-.54 2a.6.6 0 0 1 -.3.37 1.22 1.22 0 0 1 -.53.1zm4.24-4.37-1.17-4.35-1.18 4.35z"/><path d="m37.61 42.36a.76.76 0 0 1 .21-.53.72.72 0 0 1 .56-.22h3.33a6.46 6.46 0 0 1 1.55.17 3.3 3.3 0 0 1 1.26.57 2.8 2.8 0 0 1 .85 1.06 4 4 0 0 1 .3 1.64 3.7 3.7 0 0 1 -.55 2.15 3 3 0 0 1 -1.4 1.12l2 3.56a.54.54 0 0 1 .08.28.87.87 0 0 1 -.15.48 1.8 1.8 0 0 1 -.37.42 2.29 2.29 0 0 1 -.5.3 1.64 1.64 0 0 1 -.56.11 1.07 1.07 0 0 1 -.46-.11.75.75 0 0 1 -.34-.36l-2.21-4.28h-1.09v3.88a.61.61 0 0 1 -.4.58 1.9 1.9 0 0 1 -.86.19 1.93 1.93 0 0 1 -.86-.19.62.62 0 0 1 -.39-.58zm2.51 1.44v3h1.59a1.62 1.62 0 0 0 1.06-.32 1.48 1.48 0 0 0 .39-1.18 1.44 1.44 0 0 0 -.39-1.17 1.56 1.56 0 0 0 -1.06-.32z"/></g></g></svg>