<svg height="512" viewBox="0 0 64 64" width="512" xmlns="http://www.w3.org/2000/svg"><g id="Flat"><path d="m12 37v-32a2 2 0 0 1 2-2h26l12 12v22" fill="#d6d6d4"/><path d="m52 57v2a2 2 0 0 1 -2 2h-36a2 2 0 0 1 -2-2v-2" fill="#d6d6d4"/><path d="m40 3v12h12" fill="#44546c"/><rect fill="#f35244" height="20" rx="2" width="46" x="9" y="37"/><path d="m46 26h-28a1 1 0 0 1 0-2h28a1 1 0 0 1 0 2z" fill="#44546c"/><path d="m46 32h-28a1 1 0 0 1 0-2h28a1 1 0 0 1 0 2z" fill="#44546c"/><g fill="#d6d6d4"><path d="m24.33 51.18h4.38a.6.6 0 0 1 .56.36 1.49 1.49 0 0 1 .2.74 1.55 1.55 0 0 1 -.2.74.61.61 0 0 1 -.56.35h-6.86a.62.62 0 0 1 -.72-.66 1.75 1.75 0 0 1 .27-.88l4.54-8h-3.73a.62.62 0 0 1 -.57-.33 1.65 1.65 0 0 1 0-1.52.6.6 0 0 1 .58-.34h6.21a.74.74 0 0 1 .55.18.7.7 0 0 1 .17.48 1.91 1.91 0 0 1 -.27.88z"/><path d="m30.48 42.36a.61.61 0 0 1 .39-.58 2.29 2.29 0 0 1 1.73 0 .61.61 0 0 1 .39.58v10.24a.62.62 0 0 1 -.39.58 2.06 2.06 0 0 1 -1.73 0 .62.62 0 0 1 -.39-.58z"/><path d="m34.73 42.36a.69.69 0 0 1 .25-.53 1 1 0 0 1 .68-.22h3.34a5.16 5.16 0 0 1 1.49.2 3.11 3.11 0 0 1 1.21.63 3 3 0 0 1 .8 1.15 4.38 4.38 0 0 1 .3 1.72v.08a4.2 4.2 0 0 1 -.31 1.72 3.11 3.11 0 0 1 -.83 1.16 3.22 3.22 0 0 1 -1.26.65 5.56 5.56 0 0 1 -1.56.2h-1.6v3.48a.61.61 0 0 1 -.4.58 2 2 0 0 1 -1.72 0 .62.62 0 0 1 -.39-.58zm2.51 1.44v3.39h1.59a1.41 1.41 0 0 0 1.06-.39 1.69 1.69 0 0 0 .39-1.22v-.17a1.67 1.67 0 0 0 -.39-1.22 1.41 1.41 0 0 0 -1.06-.39z"/></g></g></svg>