<svg id="Layer_1" data-name="Layer 1" xmlns="http://www.w3.org/2000/svg" viewBox="0 0 245.83 82.29"><defs><style>.cls-1{fill:#023046;}.cls-2{fill:#e45154;}</style></defs><path class="cls-1" d="M128.24,31.31h-2.62c-1.15-2.43-2.57-5.41-3.17-6.73-.45-1-.89-2-1.35-3a2,2,0,0,0-3.56,0c-.21.45-.41.9-.62,1.36-.9,2-2.59,5.63-3.84,8.35H110.5l.56-1.22c1-2.2,3.29-7.18,4.29-9.38a4.3,4.3,0,0,1,7.88-.07C124.34,23.06,126.67,28,128.24,31.31Zm-8.9-3.7,1.74,3.7h-3.42Z"/><path class="cls-1" d="M182.32,31.31H179.7c-1.15-2.43-2.57-5.41-3.17-6.73-.45-1-.89-2-1.35-3a1.86,1.86,0,0,0-1.79-1.14,1.83,1.83,0,0,0-1.76,1.14c-.22.45-.42.9-.63,1.36-.9,2-2.59,5.63-3.84,8.35h-2.58l.56-1.22c1-2.2,3.3-7.18,4.3-9.38a4.29,4.29,0,0,1,7.87-.07C178.42,23.06,180.75,28,182.32,31.31Zm-8.89-3.7,1.73,3.7h-3.41Z"/><path class="cls-1" d="M214.17,18.06v2.37H204v7.18h0V29h10.13v2.37c-1.33,0-7.38,0-10.13,0h-1.1a1.27,1.27,0,0,1-.34,0,1.15,1.15,0,0,1-.91-1.13c0-.35,0-.7,0-1.05V26.94h0v-6.5h0V18.06Zm-7.06,5.46h7.06v2.36h-7.06Z"/><path class="cls-1" d="M94.82,23.69H101v2.38H94.82v5.25H92.46V18.06h2.36Zm9.27,7.63V18.06h2.36V31.32Z"/><path class="cls-1" d="M132.29,31.32V18.06h2.36V31.32Z"/><path class="cls-1" d="M233.85,31.3h-3.24l-3.92-4.25h-5.06v3h0v1.2h-.92a1.11,1.11,0,0,1-.48,0h-1V25.91h0V23.52h2.46v1.15h6.93a2.07,2.07,0,0,0,1.78-.89,2.1,2.1,0,0,0-.35-2.83,2.19,2.19,0,0,0-1.45-.52H219.3V18.07h9.35a4.37,4.37,0,0,1,3,1.17,4.32,4.32,0,0,1,1.48,3.13,4.39,4.39,0,0,1-2.14,4,4.09,4.09,0,0,1-1.24.52h0l.46.5Z"/><path class="cls-1" d="M74,20.44V18.06H87.89v2.38Zm5.8,10.86V22.15h2.36V31.3Z"/><path class="cls-1" d="M183.19,20.44V18.06h13.92v2.38ZM189,31.3V22.15h2.36V31.3Z"/><path class="cls-1" d="M149.52,26.16l1.3,2.85a4.23,4.23,0,0,1-2.9,2.23,7.67,7.67,0,0,1-.86.12,4.29,4.29,0,0,1-4-2.57c-1.29-2.77-3.63-7.95-4.9-10.73h2.6l2.09,4.58c.78,1.71,1.57,3.42,2.35,5.14a1.92,1.92,0,0,0,1.39,1.16,1.89,1.89,0,0,0,2.13-1.05C149,27.32,149.26,26.74,149.52,26.16ZM165.3,18l-.42.91c-1.12,2.47-3.32,7.34-4.45,9.81a4.22,4.22,0,0,1-3,2.48,7.52,7.52,0,0,1-.87.12,4.28,4.28,0,0,1-4-2.57L151.73,27v0l-1.3-2.86h0c-.44-1-.9-2-1.32-2.91h2.6s0,0,0,0,0,0,0,0h2.59c-.41.91-.86,1.91-1.31,2.89.56,1.21,1.11,2.43,1.66,3.64a1.94,1.94,0,0,0,1.4,1.16,1.89,1.89,0,0,0,2.13-1.05c.41-.85.79-1.72,1.18-2.58.75-1.62,2.56-5.65,3.3-7.27Z"/><path class="cls-2" d="M166.77,62.75h-4.53c-2-4.22-4.46-9.38-5.5-11.67-.78-1.72-1.55-3.44-2.34-5.15a3.38,3.38,0,0,0-6.15,0c-.37.78-.72,1.57-1.08,2.36-1.56,3.42-4.49,9.75-6.65,14.47H136l1-2.13c1.73-3.8,5.71-12.43,7.44-16.23a7.44,7.44,0,0,1,13.64-.13C160,48.45,164.05,56.93,166.77,62.75Zm-15.41-6.42,3,6.42h-5.91Z"/><path class="cls-2" d="M226.94,39.79V43.9H209.4V56.33h0v2.32h17.54v4.1c-2.31,0-12.78,0-17.54,0h-1.91a2.88,2.88,0,0,1-.59,0,2,2,0,0,1-1.58-2V43.9h0V39.79Zm-12.22,9.47h12.22v4.08H214.72Z"/><path class="cls-2" d="M110.51,49.55h10.72v4.12H110.51v9.08h-4.08v-23h4.08Zm16.06,13.2v-23h4.09v23Z"/><path class="cls-2" d="M198.85,62.73h-5.6c-2.51-2.72-5.82-6.33-6.79-7.37h-8.77v.25c0,1.66,0,3.33,0,5v2.11H176.1a2,2,0,0,1-.84,0h-1.65V49.26h4.26v2h12a3.67,3.67,0,0,0,2.47-6.45,3.73,3.73,0,0,0-2.5-.9H173.67V39.82h16.17a7.64,7.64,0,0,1,5.3,2,7.41,7.41,0,0,1,2.55,5.43A7.56,7.56,0,0,1,194,54.21a7.17,7.17,0,0,1-2.13.92l0,0c.28.29.53.58.79.86Z"/><path class="cls-2" d="M99.33,55c0,.1,0,.2,0,.3A7.36,7.36,0,0,1,97,60.56a8.16,8.16,0,0,1-5.69,2.19H81.92a8.17,8.17,0,0,1-5.67-2.18A7.35,7.35,0,0,1,74,56.33h4.67a3.56,3.56,0,0,0,1,1.45,3.73,3.73,0,0,0,2.5.9H91A3.7,3.7,0,0,0,94.83,55V53.28H74V47.13a7.34,7.34,0,0,1,7.34-7.34h10A8.17,8.17,0,0,1,97,42a7.46,7.46,0,0,1,2.28,4.24H94.57A3.69,3.69,0,0,0,91,43.87H81.57a3.49,3.49,0,0,0-3.49,3.49v1.93H99.33V55Z"/><polygon class="cls-1" points="22.29 54.73 22.29 54.73 22.29 54.73 22.29 51.09 18.64 51.09 15 51.09 15 54.73 18.64 54.73 18.64 54.73 18.64 54.73 18.64 58.38 15 58.38 15 62.02 18.64 62.02 18.64 58.38 22.29 58.38 22.29 62.02 25.93 62.02 25.93 58.38 22.29 58.38 22.29 54.73"/><rect class="cls-2" x="22.29" y="58.38" width="3.64" height="3.64"/><polygon class="cls-2" points="50.07 21.31 53.72 21.31 53.72 17.67 50.07 17.67 46.43 17.67 46.43 17.67 46.43 21.31 50.07 21.31 50.07 21.31"/><rect class="cls-1" x="53.71" y="24.95" width="3.64" height="3.64"/><rect class="cls-2" x="57.36" y="21.31" width="3.64" height="3.64"/><path class="cls-1" d="M26.35,45.32h23.7a2.9,2.9,0,0,1,2.54,2.87h0a2.9,2.9,0,0,1-2.9,2.9H33.21v3.64h3.64v3.65H33.21V54.73H29.57V51.09H25.93v7.29h3.64V62H49.65A13.83,13.83,0,0,0,63.48,48.19h0A13.83,13.83,0,0,0,49.65,34.37H26a2.91,2.91,0,0,1-2.54-2.88h0a2.89,2.89,0,0,1,2.9-2.89H39.15V25h3.64V28.6h7.28V25H46.43V21.31H42.79V17.67H26.35A13.83,13.83,0,0,0,12.52,31.49h0A13.83,13.83,0,0,0,26.35,45.32ZM46.43,38h3.64v3.64H46.43Zm-5.52,0h3.65v3.64H40.91ZM35.4,38H39v3.64H35.4Zm-9.47,0h3.64v3.64H25.93Z"/><rect class="cls-2" x="40.91" y="38.02" width="3.64" height="3.64"/></svg>